{
  "accessors": [
    {
      "name": "vmd_mol15_rep1_1_0_positions",
      "componentType": 5126,
      "count": 5016,
      "min": [
        -0.1379539966583252,
        -0.37460699677467346,
        -0.1437229961156845
      ],
      "max": [
        0.40735700726509094,
        0.2318349927663803,
        0.4154199957847595
      ],
      "type": "VEC3",
      "bufferView": 0,
      "byteOffset": 0
    },
    {
      "name": "vmd_mol15_rep1_1_0_normals",
      "componentType": 5126,
      "count": 5016,
      "min": [
        -1,
        -1,
        -1
      ],
      "max": [
        1,
        1,
        1
      ],
      "type": "VEC3",
      "bufferView": 1,
      "byteOffset": 0
    },
    {
      "name": "vmd_mol15_rep1_1_0_indices",
      "componentType": 5123,
      "count": 5016,
      "min": [
        0
      ],
      "max": [
        5015
      ],
      "type": "SCALAR",
      "bufferView": 2,
      "byteOffset": 0
    },
    {
      "name": "vmd_mol15_rep1_1_1_positions",
      "componentType": 5126,
      "count": 18672,
      "min": [
        -0.18243299424648285,
        -0.3439309895038605,
        -0.12586000561714172
      ],
      "max": [
        0.4602789878845215,
        0.29344499111175537,
        0.39586499333381653
      ],
      "type": "VEC3",
      "bufferView": 0,
      "byteOffset": 60192
    },
    {
      "name": "vmd_mol15_rep1_1_1_normals",
      "componentType": 5126,
      "count": 18672,
      "min": [
        -1,
        -1,
        -1
      ],
      "max": [
        1,
        1,
        1
      ],
      "type": "VEC3",
      "bufferView": 1,
      "byteOffset": 60192
    },
    {
      "name": "vmd_mol15_rep1_1_1_indices",
      "componentType": 5123,
      "count": 18672,
      "min": [
        0
      ],
      "max": [
        18671
      ],
      "type": "SCALAR",
      "bufferView": 2,
      "byteOffset": 10032
    },
    {
      "name": "vmd_mol15_rep1_1_2_positions",
      "componentType": 5126,
      "count": 4032,
      "min": [
        -0.20697399973869324,
        -0.32391300797462463,
        -0.1034569963812828
      ],
      "max": [
        0.4655640125274658,
        0.3184329867362976,
        0.39484700560569763
      ],
      "type": "VEC3",
      "bufferView": 0,
      "byteOffset": 284256
    },
    {
      "name": "vmd_mol15_rep1_1_2_normals",
      "componentType": 5126,
      "count": 4032,
      "min": [
        -1,
        -1,
        -1
      ],
      "max": [
        1,
        1,
        1
      ],
      "type": "VEC3",
      "bufferView": 1,
      "byteOffset": 284256
    },
    {
      "name": "vmd_mol15_rep1_1_2_indices",
      "componentType": 5123,
      "count": 4032,
      "min": [
        0
      ],
      "max": [
        4031
      ],
      "type": "SCALAR",
      "bufferView": 2,
      "byteOffset": 47376
    },
    {
      "name": "vmd_mol15_rep1_1_3_positions",
      "componentType": 5126,
      "count": 504,
      "min": [
        -0.10175299644470215,
        -0.33806100487709045,
        -0.07031500339508057
      ],
      "max": [
        -0.07181300222873688,
        -0.29386401176452637,
        -0.04677800089120865
      ],
      "type": "VEC3",
      "bufferView": 0,
      "byteOffset": 332640
    },
    {
      "name": "vmd_mol15_rep1_1_3_normals",
      "componentType": 5126,
      "count": 504,
      "min": [
        -1,
        -1,
        -1
      ],
      "max": [
        1,
        1,
        1
      ],
      "type": "VEC3",
      "bufferView": 1,
      "byteOffset": 332640
    },
    {
      "name": "vmd_mol15_rep1_1_3_indices",
      "componentType": 5123,
      "count": 504,
      "min": [
        0
      ],
      "max": [
        503
      ],
      "type": "SCALAR",
      "bufferView": 2,
      "byteOffset": 55440
    },
    {
      "name": "vmd_mol15_rep2_1_0_positions",
      "componentType": 5126,
      "count": 22656,
      "min": [
        0.0673850029706955,
        -0.25875499844551086,
        -0.019902000203728676
      ],
      "max": [
        0.23782700300216675,
        0.17172899842262268,
        0.4902400076389313
      ],
      "type": "VEC3",
      "bufferView": 0,
      "byteOffset": 338688
    },
    {
      "name": "vmd_mol15_rep2_1_0_normals",
      "componentType": 5126,
      "count": 22656,
      "min": [
        -1,
        -1,
        -1
      ],
      "max": [
        1,
        1,
        1
      ],
      "type": "VEC3",
      "bufferView": 1,
      "byteOffset": 338688
    },
    {
      "name": "vmd_mol15_rep2_1_0_indices",
      "componentType": 5123,
      "count": 22656,
      "min": [
        0
      ],
      "max": [
        22655
      ],
      "type": "SCALAR",
      "bufferView": 2,
      "byteOffset": 56448
    },
    {
      "name": "vmd_mol15_rep2_1_1_positions",
      "componentType": 5126,
      "count": 2976,
      "min": [
        0.12219399958848953,
        -0.11030899733304977,
        0.11734499782323837
      ],
      "max": [
        0.20500999689102173,
        0.05993200093507767,
        0.28995299339294434
      ],
      "type": "VEC3",
      "bufferView": 0,
      "byteOffset": 610560
    },
    {
      "name": "vmd_mol15_rep2_1_1_normals",
      "componentType": 5126,
      "count": 2976,
      "min": [
        -1,
        -1,
        -1
      ],
      "max": [
        1,
        1,
        1
      ],
      "type": "VEC3",
      "bufferView": 1,
      "byteOffset": 610560
    },
    {
      "name": "vmd_mol15_rep2_1_1_indices",
      "componentType": 5123,
      "count": 2976,
      "min": [
        0
      ],
      "max": [
        2975
      ],
      "type": "SCALAR",
      "bufferView": 2,
      "byteOffset": 101760
    },
    {
      "name": "vmd_mol15_rep2_1_2_positions",
      "componentType": 5126,
      "count": 2016,
      "min": [
        0.10877499729394913,
        -0.09740500152111053,
        0.404776006937027
      ],
      "max": [
        0.19282099604606628,
        0.2027920037508011,
        0.5032209753990173
      ],
      "type": "VEC3",
      "bufferView": 0,
      "byteOffset": 646272
    },
    {
      "name": "vmd_mol15_rep2_1_2_normals",
      "componentType": 5126,
      "count": 2016,
      "min": [
        -1,
        -1,
        -1
      ],
      "max": [
        1,
        1,
        1
      ],
      "type": "VEC3",
      "bufferView": 1,
      "byteOffset": 646272
    },
    {
      "name": "vmd_mol15_rep2_1_2_indices",
      "componentType": 5123,
      "count": 2016,
      "min": [
        0
      ],
      "max": [
        2015
      ],
      "type": "SCALAR",
      "bufferView": 2,
      "byteOffset": 107712
    },
    {
      "name": "vmd_mol15_rep2_1_3_positions",
      "componentType": 5126,
      "count": 864,
      "min": [
        0.1474130004644394,
        -0.058253999799489975,
        0.16754600405693054
      ],
      "max": [
        0.1893489956855774,
        0.012637999840080738,
        0.23835699260234833
      ],
      "type": "VEC3",
      "bufferView": 0,
      "byteOffset": 670464
    },
    {
      "name": "vmd_mol15_rep2_1_3_normals",
      "componentType": 5126,
      "count": 864,
      "min": [
        -1,
        -1,
        -1
      ],
      "max": [
        1,
        1,
        1
      ],
      "type": "VEC3",
      "bufferView": 1,
      "byteOffset": 670464
    },
    {
      "name": "vmd_mol15_rep2_1_3_indices",
      "componentType": 5123,
      "count": 864,
      "min": [
        0
      ],
      "max": [
        863
      ],
      "type": "SCALAR",
      "bufferView": 2,
      "byteOffset": 111744
    },
    {
      "name": "vmd_mol15_rep3_1_0_positions",
      "componentType": 5126,
      "count": 23532,
      "min": [
        -0.6431499719619751,
        -0.6084690093994141,
        -0.675819993019104
      ],
      "max": [
        0.7703589797019958,
        0.5731800198554993,
        0.6151419878005981
      ],
      "type": "VEC3",
      "bufferView": 0,
      "byteOffset": 680832
    },
    {
      "name": "vmd_mol15_rep3_1_0_normals",
      "componentType": 5126,
      "count": 23532,
      "min": [
        -0.9997860789299011,
        -0.9999111294746399,
        -0.9999222755432129
      ],
      "max": [
        0.9997860789299011,
        0.9999111294746399,
        0.9999222755432129
      ],
      "type": "VEC3",
      "bufferView": 1,
      "byteOffset": 680832
    },
    {
      "name": "vmd_mol15_rep3_1_0_indices",
      "componentType": 5123,
      "count": 141120,
      "min": [
        0
      ],
      "max": [
        23531
      ],
      "type": "SCALAR",
      "bufferView": 2,
      "byteOffset": 113472
    },
    {
      "name": "vmd_mol15_rep4_1_0_positions",
      "componentType": 5126,
      "count": 768,
      "min": [
        0.037824999541044235,
        -0.126227006316185,
        0.18694600462913513
      ],
      "max": [
        0.09841900318861008,
        -0.03091300092637539,
        0.24585500359535217
      ],
      "type": "VEC3",
      "bufferView": 0,
      "byteOffset": 963216
    },
    {
      "name": "vmd_mol15_rep4_1_0_normals",
      "componentType": 5126,
      "count": 768,
      "min": [
        -1,
        -1,
        -1
      ],
      "max": [
        1,
        1,
        1
      ],
      "type": "VEC3",
      "bufferView": 1,
      "byteOffset": 963216
    },
    {
      "name": "vmd_mol15_rep4_1_0_indices",
      "componentType": 5123,
      "count": 768,
      "min": [
        0
      ],
      "max": [
        767
      ],
      "type": "SCALAR",
      "bufferView": 2,
      "byteOffset": 395712
    },
    {
      "name": "vmd_mol15_rep5_1_0_positions",
      "componentType": 5126,
      "count": 384,
      "min": [
        0.1362289935350418,
        -0.057137999683618546,
        0.16749699413776398
      ],
      "max": [
        0.2064419984817505,
        0.013075999915599823,
        0.23770999908447266
      ],
      "type": "VEC3",
      "bufferView": 0,
      "byteOffset": 972432
    },
    {
      "name": "vmd_mol15_rep5_1_0_normals",
      "componentType": 5126,
      "count": 384,
      "min": [
        -1,
        -1,
        -1
      ],
      "max": [
        1,
        1,
        1
      ],
      "type": "VEC3",
      "bufferView": 1,
      "byteOffset": 972432
    },
    {
      "name": "vmd_mol15_rep5_1_0_indices",
      "componentType": 5123,
      "count": 384,
      "min": [
        0
      ],
      "max": [
        383
      ],
      "type": "SCALAR",
      "bufferView": 2,
      "byteOffset": 397248
    }
  ],
  "asset": {
    "generator": "obj2gltf",
    "version": "2.0"
  },
  "buffers": [
    {
      "name": "frame15",
      "byteLength": 2352096,
      "uri": "data:application/octet-stream;base64,"
    }
  ],
  "bufferViews": [
    {
      "name": "bufferView_0",
      "buffer": 0,
      "byteLength": 977040,
      "byteOffset": 0,
      "byteStride": 12,
      "target": 34962
    },
    {
      "name": "bufferView_1",
      "buffer": 0,
      "byteLength": 977040,
      "byteOffset": 977040,
      "byteStride": 12,
      "target": 34962
    },
    {
      "name": "bufferView_2",
      "buffer": 0,
      "byteLength": 398016,
      "byteOffset": 1954080,
      "target": 34963
    }
  ],
  "materials": [
    {
      "name": "vmd_mat_cindex_0",
      "pbrMetallicRoughness": {
        "baseColorFactor": [
          0,
          0,
          0.65,
          1
        ],
        "metallicFactor": 0,
        "roughnessFactor": 0.925392
      },
      "emissiveFactor": [
        0,
        0,
        0
      ],
      "alphaMode": "OPAQUE",
      "doubleSided": false
    },
    {
      "name": "vmd_mat_cindex_10",
      "pbrMetallicRoughness": {
        "baseColorFactor": [
          0.16,
          0.49,
          0.49,
          1
        ],
        "metallicFactor": 0,
        "roughnessFactor": 0.96
      },
      "emissiveFactor": [
        0,
        0,
        0
      ],
      "alphaMode": "OPAQUE",
      "doubleSided": false
    },
    {
      "name": "vmd_mat_cindex_1",
      "pbrMetallicRoughness": {
        "baseColorFactor": [
          0.65,
          0,
          0,
          1
        ],
        "metallicFactor": 0,
        "roughnessFactor": 0.96
      },
      "emissiveFactor": [
        0,
        0,
        0
      ],
      "alphaMode": "OPAQUE",
      "doubleSided": false
    },
    {
      "name": "vmd_mat_cindex_4",
      "pbrMetallicRoughness": {
        "baseColorFactor": [
          0.65,
          0.65,
          0,
          1
        ],
        "metallicFactor": 0,
        "roughnessFactor": 0.96
      },
      "emissiveFactor": [
        0,
        0,
        0
      ],
      "alphaMode": "OPAQUE",
      "doubleSided": false
    },
    {
      "name": "vmd_mat_cindex_14",
      "pbrMetallicRoughness": {
        "baseColorFactor": [
          0.32,
          0.2,
          0,
          1
        ],
        "metallicFactor": 0,
        "roughnessFactor": 0.96
      },
      "emissiveFactor": [
        0,
        0,
        0
      ],
      "alphaMode": "OPAQUE",
      "doubleSided": false
    },
    {
      "name": "vmd_mat_cindex_8",
      "pbrMetallicRoughness": {
        "baseColorFactor": [
          0.65,
          0.65,
          0.65,
          1
        ],
        "metallicFactor": 0,
        "roughnessFactor": 0.96
      },
      "emissiveFactor": [
        0,
        0,
        0
      ],
      "alphaMode": "OPAQUE",
      "doubleSided": false
    }
  ],
  "meshes": [
    {
      "name": "vmd_mol15_rep1_1",
      "primitives": [
        {
          "attributes": {
            "POSITION": 0,
            "NORMAL": 1
          },
          "indices": 2,
          "material": 0,
          "mode": 4
        },
        {
          "attributes": {
            "POSITION": 3,
            "NORMAL": 4
          },
          "indices": 5,
          "material": 1,
          "mode": 4
        },
        {
          "attributes": {
            "POSITION": 6,
            "NORMAL": 7
          },
          "indices": 8,
          "material": 2,
          "mode": 4
        },
        {
          "attributes": {
            "POSITION": 9,
            "NORMAL": 10
          },
          "indices": 11,
          "material": 3,
          "mode": 4
        }
      ]
    },
    {
      "name": "vmd_mol15_rep2_1",
      "primitives": [
        {
          "attributes": {
            "POSITION": 12,
            "NORMAL": 13
          },
          "indices": 14,
          "material": 1,
          "mode": 4
        },
        {
          "attributes": {
            "POSITION": 15,
            "NORMAL": 16
          },
          "indices": 17,
          "material": 0,
          "mode": 4
        },
        {
          "attributes": {
            "POSITION": 18,
            "NORMAL": 19
          },
          "indices": 20,
          "material": 2,
          "mode": 4
        },
        {
          "attributes": {
            "POSITION": 21,
            "NORMAL": 22
          },
          "indices": 23,
          "material": 4,
          "mode": 4
        }
      ]
    },
    {
      "name": "vmd_mol15_rep3_1",
      "primitives": [
        {
          "attributes": {
            "POSITION": 24,
            "NORMAL": 25
          },
          "indices": 26,
          "material": 5,
          "mode": 4
        }
      ]
    },
    {
      "name": "vmd_mol15_rep4_1",
      "primitives": [
        {
          "attributes": {
            "POSITION": 27,
            "NORMAL": 28
          },
          "indices": 29,
          "material": 2,
          "mode": 4
        }
      ]
    },
    {
      "name": "vmd_mol15_rep5_1",
      "primitives": [
        {
          "attributes": {
            "POSITION": 30,
            "NORMAL": 31
          },
          "indices": 32,
          "material": 4,
          "mode": 4
        }
      ]
    }
  ],
  "nodes": [
    {
      "name": "vmd_mol15_rep1",
      "mesh": 0
    },
    {
      "name": "vmd_mol15_rep2",
      "mesh": 1
    },
    {
      "name": "vmd_mol15_rep3",
      "mesh": 2
    },
    {
      "name": "vmd_mol15_rep4",
      "mesh": 3
    },
    {
      "name": "vmd_mol15_rep5",
      "mesh": 4
    }
  ],
  "scene": 0,
  "scenes": [
    {
      "nodes": [
        0,
        1,
        2,
        3,
        4
      ]
    }
  ]
}
