{
  "accessors": [
    {
      "name": "vmd_mol28_rep1_1_0_positions",
      "componentType": 5126,
      "count": 5016,
      "min": [
        -0.13410499691963196,
        -0.36739298701286316,
        -0.1425040066242218
      ],
      "max": [
        0.39882299304008484,
        0.23288500308990479,
        0.40916699171066284
      ],
      "type": "VEC3",
      "bufferView": 0,
      "byteOffset": 0
    },
    {
      "name": "vmd_mol28_rep1_1_0_normals",
      "componentType": 5126,
      "count": 5016,
      "min": [
        -1,
        -1,
        -1
      ],
      "max": [
        1,
        1,
        1
      ],
      "type": "VEC3",
      "bufferView": 1,
      "byteOffset": 0
    },
    {
      "name": "vmd_mol28_rep1_1_0_indices",
      "componentType": 5123,
      "count": 5016,
      "min": [
        0
      ],
      "max": [
        5015
      ],
      "type": "SCALAR",
      "bufferView": 2,
      "byteOffset": 0
    },
    {
      "name": "vmd_mol28_rep1_1_1_positions",
      "componentType": 5126,
      "count": 18672,
      "min": [
        -0.17647799849510193,
        -0.3366140127182007,
        -0.12462499737739563
      ],
      "max": [
        0.4456759989261627,
        0.29177799820899963,
        0.38994500041007996
      ],
      "type": "VEC3",
      "bufferView": 0,
      "byteOffset": 60192
    },
    {
      "name": "vmd_mol28_rep1_1_1_normals",
      "componentType": 5126,
      "count": 18672,
      "min": [
        -1,
        -1,
        -1
      ],
      "max": [
        1,
        1,
        1
      ],
      "type": "VEC3",
      "bufferView": 1,
      "byteOffset": 60192
    },
    {
      "name": "vmd_mol28_rep1_1_1_indices",
      "componentType": 5123,
      "count": 18672,
      "min": [
        0
      ],
      "max": [
        18671
      ],
      "type": "SCALAR",
      "bufferView": 2,
      "byteOffset": 10032
    },
    {
      "name": "vmd_mol28_rep1_1_2_positions",
      "componentType": 5126,
      "count": 4032,
      "min": [
        -0.20005300641059875,
        -0.3105739951133728,
        -0.10291299968957901
      ],
      "max": [
        0.4497070014476776,
        0.31627699732780457,
        0.39261001348495483
      ],
      "type": "VEC3",
      "bufferView": 0,
      "byteOffset": 284256
    },
    {
      "name": "vmd_mol28_rep1_1_2_normals",
      "componentType": 5126,
      "count": 4032,
      "min": [
        -1,
        -1,
        -1
      ],
      "max": [
        1,
        1,
        1
      ],
      "type": "VEC3",
      "bufferView": 1,
      "byteOffset": 284256
    },
    {
      "name": "vmd_mol28_rep1_1_2_indices",
      "componentType": 5123,
      "count": 4032,
      "min": [
        0
      ],
      "max": [
        4031
      ],
      "type": "SCALAR",
      "bufferView": 2,
      "byteOffset": 47376
    },
    {
      "name": "vmd_mol28_rep1_1_3_positions",
      "componentType": 5126,
      "count": 504,
      "min": [
        -0.09666799753904343,
        -0.33271899819374084,
        -0.06947500258684158
      ],
      "max": [
        -0.06718499958515167,
        -0.28924500942230225,
        -0.0464089997112751
      ],
      "type": "VEC3",
      "bufferView": 0,
      "byteOffset": 332640
    },
    {
      "name": "vmd_mol28_rep1_1_3_normals",
      "componentType": 5126,
      "count": 504,
      "min": [
        -1,
        -1,
        -1
      ],
      "max": [
        1,
        1,
        1
      ],
      "type": "VEC3",
      "bufferView": 1,
      "byteOffset": 332640
    },
    {
      "name": "vmd_mol28_rep1_1_3_indices",
      "componentType": 5123,
      "count": 504,
      "min": [
        0
      ],
      "max": [
        503
      ],
      "type": "SCALAR",
      "bufferView": 2,
      "byteOffset": 55440
    },
    {
      "name": "vmd_mol28_rep2_1_0_positions",
      "componentType": 5126,
      "count": 22656,
      "min": [
        0.06474500149488449,
        -0.2551429867744446,
        -0.023451000452041626
      ],
      "max": [
        0.23291200399398804,
        0.1692889928817749,
        0.48479199409484863
      ],
      "type": "VEC3",
      "bufferView": 0,
      "byteOffset": 338688
    },
    {
      "name": "vmd_mol28_rep2_1_0_normals",
      "componentType": 5126,
      "count": 22656,
      "min": [
        -1,
        -1,
        -1
      ],
      "max": [
        1,
        1,
        1
      ],
      "type": "VEC3",
      "bufferView": 1,
      "byteOffset": 338688
    },
    {
      "name": "vmd_mol28_rep2_1_0_indices",
      "componentType": 5123,
      "count": 22656,
      "min": [
        0
      ],
      "max": [
        22655
      ],
      "type": "SCALAR",
      "bufferView": 2,
      "byteOffset": 56448
    },
    {
      "name": "vmd_mol28_rep2_1_1_positions",
      "componentType": 5126,
      "count": 2976,
      "min": [
        0.1184149980545044,
        -0.11013700067996979,
        0.11552699655294418
      ],
      "max": [
        0.20148199796676636,
        0.057096000760793686,
        0.2846499979496002
      ],
      "type": "VEC3",
      "bufferView": 0,
      "byteOffset": 610560
    },
    {
      "name": "vmd_mol28_rep2_1_1_normals",
      "componentType": 5126,
      "count": 2976,
      "min": [
        -1,
        -1,
        -1
      ],
      "max": [
        1,
        1,
        1
      ],
      "type": "VEC3",
      "bufferView": 1,
      "byteOffset": 610560
    },
    {
      "name": "vmd_mol28_rep2_1_1_indices",
      "componentType": 5123,
      "count": 2976,
      "min": [
        0
      ],
      "max": [
        2975
      ],
      "type": "SCALAR",
      "bufferView": 2,
      "byteOffset": 101760
    },
    {
      "name": "vmd_mol28_rep2_1_2_positions",
      "componentType": 5126,
      "count": 2016,
      "min": [
        0.1057019978761673,
        -0.10061699897050858,
        0.3994069993495941
      ],
      "max": [
        0.19462800025939941,
        0.20000100135803223,
        0.49774500727653503
      ],
      "type": "VEC3",
      "bufferView": 0,
      "byteOffset": 646272
    },
    {
      "name": "vmd_mol28_rep2_1_2_normals",
      "componentType": 5126,
      "count": 2016,
      "min": [
        -1,
        -1,
        -1
      ],
      "max": [
        1,
        1,
        1
      ],
      "type": "VEC3",
      "bufferView": 1,
      "byteOffset": 646272
    },
    {
      "name": "vmd_mol28_rep2_1_2_indices",
      "componentType": 5123,
      "count": 2016,
      "min": [
        0
      ],
      "max": [
        2015
      ],
      "type": "SCALAR",
      "bufferView": 2,
      "byteOffset": 107712
    },
    {
      "name": "vmd_mol28_rep2_1_3_positions",
      "componentType": 5126,
      "count": 864,
      "min": [
        0.1415569931268692,
        -0.06006399914622307,
        0.16497600078582764
      ],
      "max": [
        0.1831749975681305,
        0.009103000164031982,
        0.2350980043411255
      ],
      "type": "VEC3",
      "bufferView": 0,
      "byteOffset": 670464
    },
    {
      "name": "vmd_mol28_rep2_1_3_normals",
      "componentType": 5126,
      "count": 864,
      "min": [
        -1,
        -1,
        -1
      ],
      "max": [
        1,
        1,
        1
      ],
      "type": "VEC3",
      "bufferView": 1,
      "byteOffset": 670464
    },
    {
      "name": "vmd_mol28_rep2_1_3_indices",
      "componentType": 5123,
      "count": 864,
      "min": [
        0
      ],
      "max": [
        863
      ],
      "type": "SCALAR",
      "bufferView": 2,
      "byteOffset": 111744
    },
    {
      "name": "vmd_mol28_rep3_1_0_positions",
      "componentType": 5126,
      "count": 23532,
      "min": [
        -0.6340649724006653,
        -0.6006749868392944,
        -0.6697570085525513
      ],
      "max": [
        0.7737810015678406,
        0.571956992149353,
        0.6118130087852478
      ],
      "type": "VEC3",
      "bufferView": 0,
      "byteOffset": 680832
    },
    {
      "name": "vmd_mol28_rep3_1_0_normals",
      "componentType": 5126,
      "count": 23532,
      "min": [
        -0.9997125267982483,
        -0.9997396469116211,
        -0.999923825263977
      ],
      "max": [
        0.9997125267982483,
        0.9997396469116211,
        0.999923825263977
      ],
      "type": "VEC3",
      "bufferView": 1,
      "byteOffset": 680832
    },
    {
      "name": "vmd_mol28_rep3_1_0_indices",
      "componentType": 5123,
      "count": 141120,
      "min": [
        0
      ],
      "max": [
        23531
      ],
      "type": "SCALAR",
      "bufferView": 2,
      "byteOffset": 113472
    },
    {
      "name": "vmd_mol28_rep4_1_0_positions",
      "componentType": 5126,
      "count": 768,
      "min": [
        0.06543900072574615,
        -0.12116499990224838,
        0.18334800004959106
      ],
      "max": [
        0.12545199692249298,
        -0.02668599970638752,
        0.24176299571990967
      ],
      "type": "VEC3",
      "bufferView": 0,
      "byteOffset": 963216
    },
    {
      "name": "vmd_mol28_rep4_1_0_normals",
      "componentType": 5126,
      "count": 768,
      "min": [
        -1,
        -1,
        -1
      ],
      "max": [
        1,
        1,
        1
      ],
      "type": "VEC3",
      "bufferView": 1,
      "byteOffset": 963216
    },
    {
      "name": "vmd_mol28_rep4_1_0_indices",
      "componentType": 5123,
      "count": 768,
      "min": [
        0
      ],
      "max": [
        767
      ],
      "type": "SCALAR",
      "bufferView": 2,
      "byteOffset": 395712
    },
    {
      "name": "vmd_mol28_rep5_1_0_positions",
      "componentType": 5126,
      "count": 384,
      "min": [
        0.12881900370121002,
        -0.0600069984793663,
        0.16508999466896057
      ],
      "max": [
        0.19823700189590454,
        0.009411999955773354,
        0.23450900614261627
      ],
      "type": "VEC3",
      "bufferView": 0,
      "byteOffset": 972432
    },
    {
      "name": "vmd_mol28_rep5_1_0_normals",
      "componentType": 5126,
      "count": 384,
      "min": [
        -1,
        -1,
        -1
      ],
      "max": [
        1,
        1,
        1
      ],
      "type": "VEC3",
      "bufferView": 1,
      "byteOffset": 972432
    },
    {
      "name": "vmd_mol28_rep5_1_0_indices",
      "componentType": 5123,
      "count": 384,
      "min": [
        0
      ],
      "max": [
        383
      ],
      "type": "SCALAR",
      "bufferView": 2,
      "byteOffset": 397248
    }
  ],
  "asset": {
    "generator": "obj2gltf",
    "version": "2.0"
  },
  "buffers": [
    {
      "name": "frame28",
      "byteLength": 2352096,
      "uri": "data:application/octet-stream;base64,"
    }
  ],
  "bufferViews": [
    {
      "name": "bufferView_0",
      "buffer": 0,
      "byteLength": 977040,
      "byteOffset": 0,
      "byteStride": 12,
      "target": 34962
    },
    {
      "name": "bufferView_1",
      "buffer": 0,
      "byteLength": 977040,
      "byteOffset": 977040,
      "byteStride": 12,
      "target": 34962
    },
    {
      "name": "bufferView_2",
      "buffer": 0,
      "byteLength": 398016,
      "byteOffset": 1954080,
      "target": 34963
    }
  ],
  "materials": [
    {
      "name": "vmd_mat_cindex_0",
      "pbrMetallicRoughness": {
        "baseColorFactor": [
          0,
          0,
          0.65,
          1
        ],
        "metallicFactor": 0,
        "roughnessFactor": 0.925392
      },
      "emissiveFactor": [
        0,
        0,
        0
      ],
      "alphaMode": "OPAQUE",
      "doubleSided": false
    },
    {
      "name": "vmd_mat_cindex_10",
      "pbrMetallicRoughness": {
        "baseColorFactor": [
          0.16,
          0.49,
          0.49,
          1
        ],
        "metallicFactor": 0,
        "roughnessFactor": 0.96
      },
      "emissiveFactor": [
        0,
        0,
        0
      ],
      "alphaMode": "OPAQUE",
      "doubleSided": false
    },
    {
      "name": "vmd_mat_cindex_1",
      "pbrMetallicRoughness": {
        "baseColorFactor": [
          0.65,
          0,
          0,
          1
        ],
        "metallicFactor": 0,
        "roughnessFactor": 0.96
      },
      "emissiveFactor": [
        0,
        0,
        0
      ],
      "alphaMode": "OPAQUE",
      "doubleSided": false
    },
    {
      "name": "vmd_mat_cindex_4",
      "pbrMetallicRoughness": {
        "baseColorFactor": [
          0.65,
          0.65,
          0,
          1
        ],
        "metallicFactor": 0,
        "roughnessFactor": 0.96
      },
      "emissiveFactor": [
        0,
        0,
        0
      ],
      "alphaMode": "OPAQUE",
      "doubleSided": false
    },
    {
      "name": "vmd_mat_cindex_14",
      "pbrMetallicRoughness": {
        "baseColorFactor": [
          0.32,
          0.2,
          0,
          1
        ],
        "metallicFactor": 0,
        "roughnessFactor": 0.96
      },
      "emissiveFactor": [
        0,
        0,
        0
      ],
      "alphaMode": "OPAQUE",
      "doubleSided": false
    },
    {
      "name": "vmd_mat_cindex_8",
      "pbrMetallicRoughness": {
        "baseColorFactor": [
          0.65,
          0.65,
          0.65,
          1
        ],
        "metallicFactor": 0,
        "roughnessFactor": 0.96
      },
      "emissiveFactor": [
        0,
        0,
        0
      ],
      "alphaMode": "OPAQUE",
      "doubleSided": false
    }
  ],
  "meshes": [
    {
      "name": "vmd_mol28_rep1_1",
      "primitives": [
        {
          "attributes": {
            "POSITION": 0,
            "NORMAL": 1
          },
          "indices": 2,
          "material": 0,
          "mode": 4
        },
        {
          "attributes": {
            "POSITION": 3,
            "NORMAL": 4
          },
          "indices": 5,
          "material": 1,
          "mode": 4
        },
        {
          "attributes": {
            "POSITION": 6,
            "NORMAL": 7
          },
          "indices": 8,
          "material": 2,
          "mode": 4
        },
        {
          "attributes": {
            "POSITION": 9,
            "NORMAL": 10
          },
          "indices": 11,
          "material": 3,
          "mode": 4
        }
      ]
    },
    {
      "name": "vmd_mol28_rep2_1",
      "primitives": [
        {
          "attributes": {
            "POSITION": 12,
            "NORMAL": 13
          },
          "indices": 14,
          "material": 1,
          "mode": 4
        },
        {
          "attributes": {
            "POSITION": 15,
            "NORMAL": 16
          },
          "indices": 17,
          "material": 0,
          "mode": 4
        },
        {
          "attributes": {
            "POSITION": 18,
            "NORMAL": 19
          },
          "indices": 20,
          "material": 2,
          "mode": 4
        },
        {
          "attributes": {
            "POSITION": 21,
            "NORMAL": 22
          },
          "indices": 23,
          "material": 4,
          "mode": 4
        }
      ]
    },
    {
      "name": "vmd_mol28_rep3_1",
      "primitives": [
        {
          "attributes": {
            "POSITION": 24,
            "NORMAL": 25
          },
          "indices": 26,
          "material": 5,
          "mode": 4
        }
      ]
    },
    {
      "name": "vmd_mol28_rep4_1",
      "primitives": [
        {
          "attributes": {
            "POSITION": 27,
            "NORMAL": 28
          },
          "indices": 29,
          "material": 2,
          "mode": 4
        }
      ]
    },
    {
      "name": "vmd_mol28_rep5_1",
      "primitives": [
        {
          "attributes": {
            "POSITION": 30,
            "NORMAL": 31
          },
          "indices": 32,
          "material": 4,
          "mode": 4
        }
      ]
    }
  ],
  "nodes": [
    {
      "name": "vmd_mol28_rep1",
      "mesh": 0
    },
    {
      "name": "vmd_mol28_rep2",
      "mesh": 1
    },
    {
      "name": "vmd_mol28_rep3",
      "mesh": 2
    },
    {
      "name": "vmd_mol28_rep4",
      "mesh": 3
    },
    {
      "name": "vmd_mol28_rep5",
      "mesh": 4
    }
  ],
  "scene": 0,
  "scenes": [
    {
      "nodes": [
        0,
        1,
        2,
        3,
        4
      ]
    }
  ]
}
