{
  "accessors": [
    {
      "name": "vmd_mol19_rep1_1_0_positions",
      "componentType": 5126,
      "count": 5016,
      "min": [
        -0.1367579996585846,
        -0.372283011674881,
        -0.1433199942111969
      ],
      "max": [
        0.4046170115470886,
        0.23209799826145172,
        0.4134089946746826
      ],
      "type": "VEC3",
      "bufferView": 0,
      "byteOffset": 0
    },
    {
      "name": "vmd_mol19_rep1_1_0_normals",
      "componentType": 5126,
      "count": 5016,
      "min": [
        -1,
        -1,
        -1
      ],
      "max": [
        1,
        1,
        1
      ],
      "type": "VEC3",
      "bufferView": 1,
      "byteOffset": 0
    },
    {
      "name": "vmd_mol19_rep1_1_0_indices",
      "componentType": 5123,
      "count": 5016,
      "min": [
        0
      ],
      "max": [
        5015
      ],
      "type": "SCALAR",
      "bufferView": 2,
      "byteOffset": 0
    },
    {
      "name": "vmd_mol19_rep1_1_1_positions",
      "componentType": 5126,
      "count": 18672,
      "min": [
        -0.1805640012025833,
        -0.34159401059150696,
        -0.125450998544693
      ],
      "max": [
        0.4556429982185364,
        0.29284998774528503,
        0.3939549922943115
      ],
      "type": "VEC3",
      "bufferView": 0,
      "byteOffset": 60192
    },
    {
      "name": "vmd_mol19_rep1_1_1_normals",
      "componentType": 5126,
      "count": 18672,
      "min": [
        -1,
        -1,
        -1
      ],
      "max": [
        1,
        1,
        1
      ],
      "type": "VEC3",
      "bufferView": 1,
      "byteOffset": 60192
    },
    {
      "name": "vmd_mol19_rep1_1_1_indices",
      "componentType": 5123,
      "count": 18672,
      "min": [
        0
      ],
      "max": [
        18671
      ],
      "type": "SCALAR",
      "bufferView": 2,
      "byteOffset": 10032
    },
    {
      "name": "vmd_mol19_rep1_1_2_positions",
      "componentType": 5126,
      "count": 4032,
      "min": [
        -0.20485399663448334,
        -0.3197160065174103,
        -0.10327199846506119
      ],
      "max": [
        0.4605419933795929,
        0.3176650106906891,
        0.39406800270080566
      ],
      "type": "VEC3",
      "bufferView": 0,
      "byteOffset": 284256
    },
    {
      "name": "vmd_mol19_rep1_1_2_normals",
      "componentType": 5126,
      "count": 4032,
      "min": [
        -1,
        -1,
        -1
      ],
      "max": [
        1,
        1,
        1
      ],
      "type": "VEC3",
      "bufferView": 1,
      "byteOffset": 284256
    },
    {
      "name": "vmd_mol19_rep1_1_2_indices",
      "componentType": 5123,
      "count": 4032,
      "min": [
        0
      ],
      "max": [
        4031
      ],
      "type": "SCALAR",
      "bufferView": 2,
      "byteOffset": 47376
    },
    {
      "name": "vmd_mol19_rep1_1_3_positions",
      "componentType": 5126,
      "count": 504,
      "min": [
        -0.10016900300979614,
        -0.33632901310920715,
        -0.07004799693822861
      ],
      "max": [
        -0.07037600129842758,
        -0.2923769950866699,
        -0.04666699841618538
      ],
      "type": "VEC3",
      "bufferView": 0,
      "byteOffset": 332640
    },
    {
      "name": "vmd_mol19_rep1_1_3_normals",
      "componentType": 5126,
      "count": 504,
      "min": [
        -1,
        -1,
        -1
      ],
      "max": [
        1,
        1,
        1
      ],
      "type": "VEC3",
      "bufferView": 1,
      "byteOffset": 332640
    },
    {
      "name": "vmd_mol19_rep1_1_3_indices",
      "componentType": 5123,
      "count": 504,
      "min": [
        0
      ],
      "max": [
        503
      ],
      "type": "SCALAR",
      "bufferView": 2,
      "byteOffset": 55440
    },
    {
      "name": "vmd_mol19_rep2_1_0_positions",
      "componentType": 5126,
      "count": 22656,
      "min": [
        0.06661999970674515,
        -0.257425993680954,
        -0.020907999947667122
      ],
      "max": [
        0.2359679937362671,
        0.17091700434684753,
        0.4880410134792328
      ],
      "type": "VEC3",
      "bufferView": 0,
      "byteOffset": 338688
    },
    {
      "name": "vmd_mol19_rep2_1_0_normals",
      "componentType": 5126,
      "count": 22656,
      "min": [
        -1,
        -1,
        -1
      ],
      "max": [
        1,
        1,
        1
      ],
      "type": "VEC3",
      "bufferView": 1,
      "byteOffset": 338688
    },
    {
      "name": "vmd_mol19_rep2_1_0_indices",
      "componentType": 5123,
      "count": 22656,
      "min": [
        0
      ],
      "max": [
        22655
      ],
      "type": "SCALAR",
      "bufferView": 2,
      "byteOffset": 56448
    },
    {
      "name": "vmd_mol19_rep2_1_1_positions",
      "componentType": 5126,
      "count": 2976,
      "min": [
        0.12091200053691864,
        -0.11007100343704224,
        0.11666399985551834
      ],
      "max": [
        0.203683003783226,
        0.05914999917149544,
        0.28797900676727295
      ],
      "type": "VEC3",
      "bufferView": 0,
      "byteOffset": 610560
    },
    {
      "name": "vmd_mol19_rep2_1_1_normals",
      "componentType": 5126,
      "count": 2976,
      "min": [
        -1,
        -1,
        -1
      ],
      "max": [
        1,
        1,
        1
      ],
      "type": "VEC3",
      "bufferView": 1,
      "byteOffset": 610560
    },
    {
      "name": "vmd_mol19_rep2_1_1_indices",
      "componentType": 5123,
      "count": 2976,
      "min": [
        0
      ],
      "max": [
        2975
      ],
      "type": "SCALAR",
      "bufferView": 2,
      "byteOffset": 101760
    },
    {
      "name": "vmd_mol19_rep2_1_2_positions",
      "componentType": 5126,
      "count": 2016,
      "min": [
        0.10754100233316422,
        -0.09801100194454193,
        0.40301600098609924
      ],
      "max": [
        0.19301900267601013,
        0.20186300575733185,
        0.5010210275650024
      ],
      "type": "VEC3",
      "bufferView": 0,
      "byteOffset": 646272
    },
    {
      "name": "vmd_mol19_rep2_1_2_normals",
      "componentType": 5126,
      "count": 2016,
      "min": [
        -1,
        -1,
        -1
      ],
      "max": [
        1,
        1,
        1
      ],
      "type": "VEC3",
      "bufferView": 1,
      "byteOffset": 646272
    },
    {
      "name": "vmd_mol19_rep2_1_2_indices",
      "componentType": 5123,
      "count": 2016,
      "min": [
        0
      ],
      "max": [
        2015
      ],
      "type": "SCALAR",
      "bufferView": 2,
      "byteOffset": 107712
    },
    {
      "name": "vmd_mol19_rep2_1_3_positions",
      "componentType": 5126,
      "count": 864,
      "min": [
        0.14541099965572357,
        -0.05859500169754028,
        0.1665640026330948
      ],
      "max": [
        0.18719600141048431,
        0.01169000007212162,
        0.23702600598335266
      ],
      "type": "VEC3",
      "bufferView": 0,
      "byteOffset": 670464
    },
    {
      "name": "vmd_mol19_rep2_1_3_normals",
      "componentType": 5126,
      "count": 864,
      "min": [
        -1,
        -1,
        -1
      ],
      "max": [
        1,
        1,
        1
      ],
      "type": "VEC3",
      "bufferView": 1,
      "byteOffset": 670464
    },
    {
      "name": "vmd_mol19_rep2_1_3_indices",
      "componentType": 5123,
      "count": 864,
      "min": [
        0
      ],
      "max": [
        863
      ],
      "type": "SCALAR",
      "bufferView": 2,
      "byteOffset": 111744
    },
    {
      "name": "vmd_mol19_rep3_1_0_positions",
      "componentType": 5126,
      "count": 23532,
      "min": [
        -0.6401950120925903,
        -0.6059150099754333,
        -0.6737340092658997
      ],
      "max": [
        0.7703679800033569,
        0.5725780129432678,
        0.6139739751815796
      ],
      "type": "VEC3",
      "bufferView": 0,
      "byteOffset": 680832
    },
    {
      "name": "vmd_mol19_rep3_1_0_normals",
      "componentType": 5126,
      "count": 23532,
      "min": [
        -0.9998023509979248,
        -0.9998738169670105,
        -0.9999628663063049
      ],
      "max": [
        0.9998023509979248,
        0.9998738169670105,
        0.9999628663063049
      ],
      "type": "VEC3",
      "bufferView": 1,
      "byteOffset": 680832
    },
    {
      "name": "vmd_mol19_rep3_1_0_indices",
      "componentType": 5123,
      "count": 141120,
      "min": [
        0
      ],
      "max": [
        23531
      ],
      "type": "SCALAR",
      "bufferView": 2,
      "byteOffset": 113472
    },
    {
      "name": "vmd_mol19_rep4_1_0_positions",
      "componentType": 5126,
      "count": 768,
      "min": [
        0.046509999781847,
        -0.12501099705696106,
        0.18621300160884857
      ],
      "max": [
        0.10691100358963013,
        -0.03002000041306019,
        0.24490100145339966
      ],
      "type": "VEC3",
      "bufferView": 0,
      "byteOffset": 963216
    },
    {
      "name": "vmd_mol19_rep4_1_0_normals",
      "componentType": 5126,
      "count": 768,
      "min": [
        -1,
        -1,
        -1
      ],
      "max": [
        1,
        1,
        1
      ],
      "type": "VEC3",
      "bufferView": 1,
      "byteOffset": 963216
    },
    {
      "name": "vmd_mol19_rep4_1_0_indices",
      "componentType": 5123,
      "count": 768,
      "min": [
        0
      ],
      "max": [
        767
      ],
      "type": "SCALAR",
      "bufferView": 2,
      "byteOffset": 395712
    },
    {
      "name": "vmd_mol19_rep5_1_0_positions",
      "componentType": 5126,
      "count": 384,
      "min": [
        0.13370199501514435,
        -0.05778999999165535,
        0.16645200550556183
      ],
      "max": [
        0.20365199446678162,
        0.012160000391304493,
        0.2364020049571991
      ],
      "type": "VEC3",
      "bufferView": 0,
      "byteOffset": 972432
    },
    {
      "name": "vmd_mol19_rep5_1_0_normals",
      "componentType": 5126,
      "count": 384,
      "min": [
        -1,
        -1,
        -1
      ],
      "max": [
        1,
        1,
        1
      ],
      "type": "VEC3",
      "bufferView": 1,
      "byteOffset": 972432
    },
    {
      "name": "vmd_mol19_rep5_1_0_indices",
      "componentType": 5123,
      "count": 384,
      "min": [
        0
      ],
      "max": [
        383
      ],
      "type": "SCALAR",
      "bufferView": 2,
      "byteOffset": 397248
    }
  ],
  "asset": {
    "generator": "obj2gltf",
    "version": "2.0"
  },
  "buffers": [
    {
      "name": "frame19",
      "byteLength": 2352096,
      "uri": "data:application/octet-stream;base64,"
    }
  ],
  "bufferViews": [
    {
      "name": "bufferView_0",
      "buffer": 0,
      "byteLength": 977040,
      "byteOffset": 0,
      "byteStride": 12,
      "target": 34962
    },
    {
      "name": "bufferView_1",
      "buffer": 0,
      "byteLength": 977040,
      "byteOffset": 977040,
      "byteStride": 12,
      "target": 34962
    },
    {
      "name": "bufferView_2",
      "buffer": 0,
      "byteLength": 398016,
      "byteOffset": 1954080,
      "target": 34963
    }
  ],
  "materials": [
    {
      "name": "vmd_mat_cindex_0",
      "pbrMetallicRoughness": {
        "baseColorFactor": [
          0,
          0,
          0.65,
          1
        ],
        "metallicFactor": 0,
        "roughnessFactor": 0.925392
      },
      "emissiveFactor": [
        0,
        0,
        0
      ],
      "alphaMode": "OPAQUE",
      "doubleSided": false
    },
    {
      "name": "vmd_mat_cindex_10",
      "pbrMetallicRoughness": {
        "baseColorFactor": [
          0.16,
          0.49,
          0.49,
          1
        ],
        "metallicFactor": 0,
        "roughnessFactor": 0.96
      },
      "emissiveFactor": [
        0,
        0,
        0
      ],
      "alphaMode": "OPAQUE",
      "doubleSided": false
    },
    {
      "name": "vmd_mat_cindex_1",
      "pbrMetallicRoughness": {
        "baseColorFactor": [
          0.65,
          0,
          0,
          1
        ],
        "metallicFactor": 0,
        "roughnessFactor": 0.96
      },
      "emissiveFactor": [
        0,
        0,
        0
      ],
      "alphaMode": "OPAQUE",
      "doubleSided": false
    },
    {
      "name": "vmd_mat_cindex_4",
      "pbrMetallicRoughness": {
        "baseColorFactor": [
          0.65,
          0.65,
          0,
          1
        ],
        "metallicFactor": 0,
        "roughnessFactor": 0.96
      },
      "emissiveFactor": [
        0,
        0,
        0
      ],
      "alphaMode": "OPAQUE",
      "doubleSided": false
    },
    {
      "name": "vmd_mat_cindex_14",
      "pbrMetallicRoughness": {
        "baseColorFactor": [
          0.32,
          0.2,
          0,
          1
        ],
        "metallicFactor": 0,
        "roughnessFactor": 0.96
      },
      "emissiveFactor": [
        0,
        0,
        0
      ],
      "alphaMode": "OPAQUE",
      "doubleSided": false
    },
    {
      "name": "vmd_mat_cindex_8",
      "pbrMetallicRoughness": {
        "baseColorFactor": [
          0.65,
          0.65,
          0.65,
          1
        ],
        "metallicFactor": 0,
        "roughnessFactor": 0.96
      },
      "emissiveFactor": [
        0,
        0,
        0
      ],
      "alphaMode": "OPAQUE",
      "doubleSided": false
    }
  ],
  "meshes": [
    {
      "name": "vmd_mol19_rep1_1",
      "primitives": [
        {
          "attributes": {
            "POSITION": 0,
            "NORMAL": 1
          },
          "indices": 2,
          "material": 0,
          "mode": 4
        },
        {
          "attributes": {
            "POSITION": 3,
            "NORMAL": 4
          },
          "indices": 5,
          "material": 1,
          "mode": 4
        },
        {
          "attributes": {
            "POSITION": 6,
            "NORMAL": 7
          },
          "indices": 8,
          "material": 2,
          "mode": 4
        },
        {
          "attributes": {
            "POSITION": 9,
            "NORMAL": 10
          },
          "indices": 11,
          "material": 3,
          "mode": 4
        }
      ]
    },
    {
      "name": "vmd_mol19_rep2_1",
      "primitives": [
        {
          "attributes": {
            "POSITION": 12,
            "NORMAL": 13
          },
          "indices": 14,
          "material": 1,
          "mode": 4
        },
        {
          "attributes": {
            "POSITION": 15,
            "NORMAL": 16
          },
          "indices": 17,
          "material": 0,
          "mode": 4
        },
        {
          "attributes": {
            "POSITION": 18,
            "NORMAL": 19
          },
          "indices": 20,
          "material": 2,
          "mode": 4
        },
        {
          "attributes": {
            "POSITION": 21,
            "NORMAL": 22
          },
          "indices": 23,
          "material": 4,
          "mode": 4
        }
      ]
    },
    {
      "name": "vmd_mol19_rep3_1",
      "primitives": [
        {
          "attributes": {
            "POSITION": 24,
            "NORMAL": 25
          },
          "indices": 26,
          "material": 5,
          "mode": 4
        }
      ]
    },
    {
      "name": "vmd_mol19_rep4_1",
      "primitives": [
        {
          "attributes": {
            "POSITION": 27,
            "NORMAL": 28
          },
          "indices": 29,
          "material": 2,
          "mode": 4
        }
      ]
    },
    {
      "name": "vmd_mol19_rep5_1",
      "primitives": [
        {
          "attributes": {
            "POSITION": 30,
            "NORMAL": 31
          },
          "indices": 32,
          "material": 4,
          "mode": 4
        }
      ]
    }
  ],
  "nodes": [
    {
      "name": "vmd_mol19_rep1",
      "mesh": 0
    },
    {
      "name": "vmd_mol19_rep2",
      "mesh": 1
    },
    {
      "name": "vmd_mol19_rep3",
      "mesh": 2
    },
    {
      "name": "vmd_mol19_rep4",
      "mesh": 3
    },
    {
      "name": "vmd_mol19_rep5",
      "mesh": 4
    }
  ],
  "scene": 0,
  "scenes": [
    {
      "nodes": [
        0,
        1,
        2,
        3,
        4
      ]
    }
  ]
}
