{
  "accessors": [
    {
      "name": "vmd_mol16_rep1_1_0_positions",
      "componentType": 5126,
      "count": 5016,
      "min": [
        -0.13767699897289276,
        -0.37400099635124207,
        -0.1436080038547516
      ],
      "max": [
        0.40664198994636536,
        0.23189499974250793,
        0.4149160087108612
      ],
      "type": "VEC3",
      "bufferView": 0,
      "byteOffset": 0
    },
    {
      "name": "vmd_mol16_rep1_1_0_normals",
      "componentType": 5126,
      "count": 5016,
      "min": [
        -1,
        -1,
        -1
      ],
      "max": [
        1,
        1,
        1
      ],
      "type": "VEC3",
      "bufferView": 1,
      "byteOffset": 0
    },
    {
      "name": "vmd_mol16_rep1_1_0_indices",
      "componentType": 5123,
      "count": 5016,
      "min": [
        0
      ],
      "max": [
        5015
      ],
      "type": "SCALAR",
      "bufferView": 2,
      "byteOffset": 0
    },
    {
      "name": "vmd_mol16_rep1_1_1_positions",
      "componentType": 5126,
      "count": 18672,
      "min": [
        -0.1819559931755066,
        -0.34331899881362915,
        -0.1257389932870865
      ],
      "max": [
        0.45908400416374207,
        0.29328998923301697,
        0.39538198709487915
      ],
      "type": "VEC3",
      "bufferView": 0,
      "byteOffset": 60192
    },
    {
      "name": "vmd_mol16_rep1_1_1_normals",
      "componentType": 5126,
      "count": 18672,
      "min": [
        -1,
        -1,
        -1
      ],
      "max": [
        1,
        1,
        1
      ],
      "type": "VEC3",
      "bufferView": 1,
      "byteOffset": 60192
    },
    {
      "name": "vmd_mol16_rep1_1_1_indices",
      "componentType": 5123,
      "count": 18672,
      "min": [
        0
      ],
      "max": [
        18671
      ],
      "type": "SCALAR",
      "bufferView": 2,
      "byteOffset": 10032
    },
    {
      "name": "vmd_mol16_rep1_1_2_positions",
      "componentType": 5126,
      "count": 4032,
      "min": [
        -0.20645399391651154,
        -0.32283100485801697,
        -0.10339800268411636
      ],
      "max": [
        0.46426600217819214,
        0.318217009305954,
        0.39464399218559265
      ],
      "type": "VEC3",
      "bufferView": 0,
      "byteOffset": 284256
    },
    {
      "name": "vmd_mol16_rep1_1_2_normals",
      "componentType": 5126,
      "count": 4032,
      "min": [
        -1,
        -1,
        -1
      ],
      "max": [
        1,
        1,
        1
      ],
      "type": "VEC3",
      "bufferView": 1,
      "byteOffset": 284256
    },
    {
      "name": "vmd_mol16_rep1_1_2_indices",
      "componentType": 5123,
      "count": 4032,
      "min": [
        0
      ],
      "max": [
        4031
      ],
      "type": "SCALAR",
      "bufferView": 2,
      "byteOffset": 47376
    },
    {
      "name": "vmd_mol16_rep1_1_3_positions",
      "componentType": 5126,
      "count": 504,
      "min": [
        -0.10135400295257568,
        -0.33759599924087524,
        -0.07023700326681137
      ],
      "max": [
        -0.07146099954843521,
        -0.2934809923171997,
        -0.046741001307964325
      ],
      "type": "VEC3",
      "bufferView": 0,
      "byteOffset": 332640
    },
    {
      "name": "vmd_mol16_rep1_1_3_normals",
      "componentType": 5126,
      "count": 504,
      "min": [
        -1,
        -1,
        -1
      ],
      "max": [
        1,
        1,
        1
      ],
      "type": "VEC3",
      "bufferView": 1,
      "byteOffset": 332640
    },
    {
      "name": "vmd_mol16_rep1_1_3_indices",
      "componentType": 5123,
      "count": 504,
      "min": [
        0
      ],
      "max": [
        503
      ],
      "type": "SCALAR",
      "bufferView": 2,
      "byteOffset": 55440
    },
    {
      "name": "vmd_mol16_rep2_1_0_positions",
      "componentType": 5126,
      "count": 22656,
      "min": [
        0.06717900186777115,
        -0.2584039866924286,
        -0.02015399932861328
      ],
      "max": [
        0.23731400072574615,
        0.1715169996023178,
        0.4896300137042999
      ],
      "type": "VEC3",
      "bufferView": 0,
      "byteOffset": 338688
    },
    {
      "name": "vmd_mol16_rep2_1_0_normals",
      "componentType": 5126,
      "count": 22656,
      "min": [
        -1,
        -1,
        -1
      ],
      "max": [
        1,
        1,
        1
      ],
      "type": "VEC3",
      "bufferView": 1,
      "byteOffset": 338688
    },
    {
      "name": "vmd_mol16_rep2_1_0_indices",
      "componentType": 5123,
      "count": 22656,
      "min": [
        0
      ],
      "max": [
        22655
      ],
      "type": "SCALAR",
      "bufferView": 2,
      "byteOffset": 56448
    },
    {
      "name": "vmd_mol16_rep2_1_1_positions",
      "componentType": 5126,
      "count": 2976,
      "min": [
        0.12187100201845169,
        -0.11023300141096115,
        0.11716599762439728
      ],
      "max": [
        0.20465700328350067,
        0.05974999815225601,
        0.2894180119037628
      ],
      "type": "VEC3",
      "bufferView": 0,
      "byteOffset": 610560
    },
    {
      "name": "vmd_mol16_rep2_1_1_normals",
      "componentType": 5126,
      "count": 2976,
      "min": [
        -1,
        -1,
        -1
      ],
      "max": [
        1,
        1,
        1
      ],
      "type": "VEC3",
      "bufferView": 1,
      "byteOffset": 610560
    },
    {
      "name": "vmd_mol16_rep2_1_1_indices",
      "componentType": 5123,
      "count": 2976,
      "min": [
        0
      ],
      "max": [
        2975
      ],
      "type": "SCALAR",
      "bufferView": 2,
      "byteOffset": 101760
    },
    {
      "name": "vmd_mol16_rep2_1_2_positions",
      "componentType": 5126,
      "count": 2016,
      "min": [
        0.1084590032696724,
        -0.09752800315618515,
        0.4043180048465729
      ],
      "max": [
        0.1928430050611496,
        0.20254899561405182,
        0.5026310086250305
      ],
      "type": "VEC3",
      "bufferView": 0,
      "byteOffset": 646272
    },
    {
      "name": "vmd_mol16_rep2_1_2_normals",
      "componentType": 5126,
      "count": 2016,
      "min": [
        -1,
        -1,
        -1
      ],
      "max": [
        1,
        1,
        1
      ],
      "type": "VEC3",
      "bufferView": 1,
      "byteOffset": 646272
    },
    {
      "name": "vmd_mol16_rep2_1_2_indices",
      "componentType": 5123,
      "count": 2016,
      "min": [
        0
      ],
      "max": [
        2015
      ],
      "type": "SCALAR",
      "bufferView": 2,
      "byteOffset": 107712
    },
    {
      "name": "vmd_mol16_rep2_1_3_positions",
      "componentType": 5126,
      "count": 864,
      "min": [
        0.14689700305461884,
        -0.05830899998545647,
        0.16727599501609802
      ],
      "max": [
        0.1887820065021515,
        0.012442000210285187,
        0.2379859983921051
      ],
      "type": "VEC3",
      "bufferView": 0,
      "byteOffset": 670464
    },
    {
      "name": "vmd_mol16_rep2_1_3_normals",
      "componentType": 5126,
      "count": 864,
      "min": [
        -1,
        -1,
        -1
      ],
      "max": [
        1,
        1,
        1
      ],
      "type": "VEC3",
      "bufferView": 1,
      "byteOffset": 670464
    },
    {
      "name": "vmd_mol16_rep2_1_3_indices",
      "componentType": 5123,
      "count": 864,
      "min": [
        0
      ],
      "max": [
        863
      ],
      "type": "SCALAR",
      "bufferView": 2,
      "byteOffset": 111744
    },
    {
      "name": "vmd_mol16_rep3_1_0_positions",
      "componentType": 5126,
      "count": 23532,
      "min": [
        -0.6423940062522888,
        -0.6078100204467773,
        -0.6752719879150391
      ],
      "max": [
        0.7702590227127075,
        0.572996973991394,
        0.6148070096969604
      ],
      "type": "VEC3",
      "bufferView": 0,
      "byteOffset": 680832
    },
    {
      "name": "vmd_mol16_rep3_1_0_normals",
      "componentType": 5126,
      "count": 23532,
      "min": [
        -0.999782919883728,
        -0.9998940825462341,
        -0.9999781250953674
      ],
      "max": [
        0.999782919883728,
        0.9998940825462341,
        0.9999781250953674
      ],
      "type": "VEC3",
      "bufferView": 1,
      "byteOffset": 680832
    },
    {
      "name": "vmd_mol16_rep3_1_0_indices",
      "componentType": 5123,
      "count": 141120,
      "min": [
        0
      ],
      "max": [
        23531
      ],
      "type": "SCALAR",
      "bufferView": 2,
      "byteOffset": 113472
    },
    {
      "name": "vmd_mol16_rep4_1_0_positions",
      "componentType": 5126,
      "count": 768,
      "min": [
        0.039997998625040054,
        -0.1259710043668747,
        0.18677200376987457
      ],
      "max": [
        0.10053300112485886,
        -0.03071499988436699,
        0.2456579953432083
      ],
      "type": "VEC3",
      "bufferView": 0,
      "byteOffset": 963216
    },
    {
      "name": "vmd_mol16_rep4_1_0_normals",
      "componentType": 5126,
      "count": 768,
      "min": [
        -1,
        -1,
        -1
      ],
      "max": [
        1,
        1,
        1
      ],
      "type": "VEC3",
      "bufferView": 1,
      "byteOffset": 963216
    },
    {
      "name": "vmd_mol16_rep4_1_0_indices",
      "componentType": 5123,
      "count": 768,
      "min": [
        0
      ],
      "max": [
        767
      ],
      "type": "SCALAR",
      "bufferView": 2,
      "byteOffset": 395712
    },
    {
      "name": "vmd_mol16_rep5_1_0_positions",
      "componentType": 5126,
      "count": 384,
      "min": [
        0.1355700045824051,
        -0.05726499855518341,
        0.1672009974718094
      ],
      "max": [
        0.20571400225162506,
        0.012879000045359135,
        0.23734599351882935
      ],
      "type": "VEC3",
      "bufferView": 0,
      "byteOffset": 972432
    },
    {
      "name": "vmd_mol16_rep5_1_0_normals",
      "componentType": 5126,
      "count": 384,
      "min": [
        -1,
        -1,
        -1
      ],
      "max": [
        1,
        1,
        1
      ],
      "type": "VEC3",
      "bufferView": 1,
      "byteOffset": 972432
    },
    {
      "name": "vmd_mol16_rep5_1_0_indices",
      "componentType": 5123,
      "count": 384,
      "min": [
        0
      ],
      "max": [
        383
      ],
      "type": "SCALAR",
      "bufferView": 2,
      "byteOffset": 397248
    }
  ],
  "asset": {
    "generator": "obj2gltf",
    "version": "2.0"
  },
  "buffers": [
    {
      "name": "frame16",
      "byteLength": 2352096,
      "uri": "data:application/octet-stream;base64,"
    }
  ],
  "bufferViews": [
    {
      "name": "bufferView_0",
      "buffer": 0,
      "byteLength": 977040,
      "byteOffset": 0,
      "byteStride": 12,
      "target": 34962
    },
    {
      "name": "bufferView_1",
      "buffer": 0,
      "byteLength": 977040,
      "byteOffset": 977040,
      "byteStride": 12,
      "target": 34962
    },
    {
      "name": "bufferView_2",
      "buffer": 0,
      "byteLength": 398016,
      "byteOffset": 1954080,
      "target": 34963
    }
  ],
  "materials": [
    {
      "name": "vmd_mat_cindex_0",
      "pbrMetallicRoughness": {
        "baseColorFactor": [
          0,
          0,
          0.65,
          1
        ],
        "metallicFactor": 0,
        "roughnessFactor": 0.925392
      },
      "emissiveFactor": [
        0,
        0,
        0
      ],
      "alphaMode": "OPAQUE",
      "doubleSided": false
    },
    {
      "name": "vmd_mat_cindex_10",
      "pbrMetallicRoughness": {
        "baseColorFactor": [
          0.16,
          0.49,
          0.49,
          1
        ],
        "metallicFactor": 0,
        "roughnessFactor": 0.96
      },
      "emissiveFactor": [
        0,
        0,
        0
      ],
      "alphaMode": "OPAQUE",
      "doubleSided": false
    },
    {
      "name": "vmd_mat_cindex_1",
      "pbrMetallicRoughness": {
        "baseColorFactor": [
          0.65,
          0,
          0,
          1
        ],
        "metallicFactor": 0,
        "roughnessFactor": 0.96
      },
      "emissiveFactor": [
        0,
        0,
        0
      ],
      "alphaMode": "OPAQUE",
      "doubleSided": false
    },
    {
      "name": "vmd_mat_cindex_4",
      "pbrMetallicRoughness": {
        "baseColorFactor": [
          0.65,
          0.65,
          0,
          1
        ],
        "metallicFactor": 0,
        "roughnessFactor": 0.96
      },
      "emissiveFactor": [
        0,
        0,
        0
      ],
      "alphaMode": "OPAQUE",
      "doubleSided": false
    },
    {
      "name": "vmd_mat_cindex_14",
      "pbrMetallicRoughness": {
        "baseColorFactor": [
          0.32,
          0.2,
          0,
          1
        ],
        "metallicFactor": 0,
        "roughnessFactor": 0.96
      },
      "emissiveFactor": [
        0,
        0,
        0
      ],
      "alphaMode": "OPAQUE",
      "doubleSided": false
    },
    {
      "name": "vmd_mat_cindex_8",
      "pbrMetallicRoughness": {
        "baseColorFactor": [
          0.65,
          0.65,
          0.65,
          1
        ],
        "metallicFactor": 0,
        "roughnessFactor": 0.96
      },
      "emissiveFactor": [
        0,
        0,
        0
      ],
      "alphaMode": "OPAQUE",
      "doubleSided": false
    }
  ],
  "meshes": [
    {
      "name": "vmd_mol16_rep1_1",
      "primitives": [
        {
          "attributes": {
            "POSITION": 0,
            "NORMAL": 1
          },
          "indices": 2,
          "material": 0,
          "mode": 4
        },
        {
          "attributes": {
            "POSITION": 3,
            "NORMAL": 4
          },
          "indices": 5,
          "material": 1,
          "mode": 4
        },
        {
          "attributes": {
            "POSITION": 6,
            "NORMAL": 7
          },
          "indices": 8,
          "material": 2,
          "mode": 4
        },
        {
          "attributes": {
            "POSITION": 9,
            "NORMAL": 10
          },
          "indices": 11,
          "material": 3,
          "mode": 4
        }
      ]
    },
    {
      "name": "vmd_mol16_rep2_1",
      "primitives": [
        {
          "attributes": {
            "POSITION": 12,
            "NORMAL": 13
          },
          "indices": 14,
          "material": 1,
          "mode": 4
        },
        {
          "attributes": {
            "POSITION": 15,
            "NORMAL": 16
          },
          "indices": 17,
          "material": 0,
          "mode": 4
        },
        {
          "attributes": {
            "POSITION": 18,
            "NORMAL": 19
          },
          "indices": 20,
          "material": 2,
          "mode": 4
        },
        {
          "attributes": {
            "POSITION": 21,
            "NORMAL": 22
          },
          "indices": 23,
          "material": 4,
          "mode": 4
        }
      ]
    },
    {
      "name": "vmd_mol16_rep3_1",
      "primitives": [
        {
          "attributes": {
            "POSITION": 24,
            "NORMAL": 25
          },
          "indices": 26,
          "material": 5,
          "mode": 4
        }
      ]
    },
    {
      "name": "vmd_mol16_rep4_1",
      "primitives": [
        {
          "attributes": {
            "POSITION": 27,
            "NORMAL": 28
          },
          "indices": 29,
          "material": 2,
          "mode": 4
        }
      ]
    },
    {
      "name": "vmd_mol16_rep5_1",
      "primitives": [
        {
          "attributes": {
            "POSITION": 30,
            "NORMAL": 31
          },
          "indices": 32,
          "material": 4,
          "mode": 4
        }
      ]
    }
  ],
  "nodes": [
    {
      "name": "vmd_mol16_rep1",
      "mesh": 0
    },
    {
      "name": "vmd_mol16_rep2",
      "mesh": 1
    },
    {
      "name": "vmd_mol16_rep3",
      "mesh": 2
    },
    {
      "name": "vmd_mol16_rep4",
      "mesh": 3
    },
    {
      "name": "vmd_mol16_rep5",
      "mesh": 4
    }
  ],
  "scene": 0,
  "scenes": [
    {
      "nodes": [
        0,
        1,
        2,
        3,
        4
      ]
    }
  ]
}
