{
  "accessors": [
    {
      "name": "vmd_mol29_rep1_1_0_positions",
      "componentType": 5126,
      "count": 5016,
      "min": [
        -0.1338150054216385,
        -0.3668690025806427,
        -0.1424569934606552
      ],
      "max": [
        0.3982200026512146,
        0.23298999667167664,
        0.4087580144405365
      ],
      "type": "VEC3",
      "bufferView": 0,
      "byteOffset": 0
    },
    {
      "name": "vmd_mol29_rep1_1_0_normals",
      "componentType": 5126,
      "count": 5016,
      "min": [
        -1,
        -1,
        -1
      ],
      "max": [
        1,
        1,
        1
      ],
      "type": "VEC3",
      "bufferView": 1,
      "byteOffset": 0
    },
    {
      "name": "vmd_mol29_rep1_1_0_indices",
      "componentType": 5123,
      "count": 5016,
      "min": [
        0
      ],
      "max": [
        5015
      ],
      "type": "SCALAR",
      "bufferView": 2,
      "byteOffset": 0
    },
    {
      "name": "vmd_mol29_rep1_1_1_positions",
      "componentType": 5126,
      "count": 18672,
      "min": [
        -0.17601700127124786,
        -0.3360770046710968,
        -0.12454800307750702
      ],
      "max": [
        0.44462698698043823,
        0.29168298840522766,
        0.38953301310539246
      ],
      "type": "VEC3",
      "bufferView": 0,
      "byteOffset": 60192
    },
    {
      "name": "vmd_mol29_rep1_1_1_normals",
      "componentType": 5126,
      "count": 18672,
      "min": [
        -1,
        -1,
        -1
      ],
      "max": [
        1,
        1,
        1
      ],
      "type": "VEC3",
      "bufferView": 1,
      "byteOffset": 60192
    },
    {
      "name": "vmd_mol29_rep1_1_1_indices",
      "componentType": 5123,
      "count": 18672,
      "min": [
        0
      ],
      "max": [
        18671
      ],
      "type": "SCALAR",
      "bufferView": 2,
      "byteOffset": 10032
    },
    {
      "name": "vmd_mol29_rep1_1_2_positions",
      "componentType": 5126,
      "count": 4032,
      "min": [
        -0.19950400292873383,
        -0.30960699915885925,
        -0.10289599746465683
      ],
      "max": [
        0.4485799968242645,
        0.3161410093307495,
        0.39249199628829956
      ],
      "type": "VEC3",
      "bufferView": 0,
      "byteOffset": 284256
    },
    {
      "name": "vmd_mol29_rep1_1_2_normals",
      "componentType": 5126,
      "count": 4032,
      "min": [
        -1,
        -1,
        -1
      ],
      "max": [
        1,
        1,
        1
      ],
      "type": "VEC3",
      "bufferView": 1,
      "byteOffset": 284256
    },
    {
      "name": "vmd_mol29_rep1_1_2_indices",
      "componentType": 5123,
      "count": 4032,
      "min": [
        0
      ],
      "max": [
        4031
      ],
      "type": "SCALAR",
      "bufferView": 2,
      "byteOffset": 47376
    },
    {
      "name": "vmd_mol29_rep1_1_3_positions",
      "componentType": 5126,
      "count": 504,
      "min": [
        -0.09628699719905853,
        -0.3323589861392975,
        -0.06944900006055832
      ],
      "max": [
        -0.06684199720621109,
        -0.2889240086078644,
        -0.04640199989080429
      ],
      "type": "VEC3",
      "bufferView": 0,
      "byteOffset": 332640
    },
    {
      "name": "vmd_mol29_rep1_1_3_normals",
      "componentType": 5126,
      "count": 504,
      "min": [
        -1,
        -1,
        -1
      ],
      "max": [
        1,
        1,
        1
      ],
      "type": "VEC3",
      "bufferView": 1,
      "byteOffset": 332640
    },
    {
      "name": "vmd_mol29_rep1_1_3_indices",
      "componentType": 5123,
      "count": 504,
      "min": [
        0
      ],
      "max": [
        503
      ],
      "type": "SCALAR",
      "bufferView": 2,
      "byteOffset": 55440
    },
    {
      "name": "vmd_mol29_rep2_1_0_positions",
      "componentType": 5126,
      "count": 22656,
      "min": [
        0.06450200080871582,
        -0.2549470067024231,
        -0.023737000301480293
      ],
      "max": [
        0.23267899453639984,
        0.16912700235843658,
        0.4845750033855438
      ],
      "type": "VEC3",
      "bufferView": 0,
      "byteOffset": 338688
    },
    {
      "name": "vmd_mol29_rep2_1_0_normals",
      "componentType": 5126,
      "count": 22656,
      "min": [
        -1,
        -1,
        -1
      ],
      "max": [
        1,
        1,
        1
      ],
      "type": "VEC3",
      "bufferView": 1,
      "byteOffset": 338688
    },
    {
      "name": "vmd_mol29_rep2_1_0_indices",
      "componentType": 5123,
      "count": 22656,
      "min": [
        0
      ],
      "max": [
        22655
      ],
      "type": "SCALAR",
      "bufferView": 2,
      "byteOffset": 56448
    },
    {
      "name": "vmd_mol29_rep2_1_1_positions",
      "componentType": 5126,
      "count": 2976,
      "min": [
        0.11815699934959412,
        -0.11020399630069733,
        0.11543899774551392
      ],
      "max": [
        0.20131400227546692,
        0.056839000433683395,
        0.28438499569892883
      ],
      "type": "VEC3",
      "bufferView": 0,
      "byteOffset": 610560
    },
    {
      "name": "vmd_mol29_rep2_1_1_normals",
      "componentType": 5126,
      "count": 2976,
      "min": [
        -1,
        -1,
        -1
      ],
      "max": [
        1,
        1,
        1
      ],
      "type": "VEC3",
      "bufferView": 1,
      "byteOffset": 610560
    },
    {
      "name": "vmd_mol29_rep2_1_1_indices",
      "componentType": 5123,
      "count": 2976,
      "min": [
        0
      ],
      "max": [
        2975
      ],
      "type": "SCALAR",
      "bufferView": 2,
      "byteOffset": 101760
    },
    {
      "name": "vmd_mol29_rep2_1_2_positions",
      "componentType": 5126,
      "count": 2016,
      "min": [
        0.10556600242853165,
        -0.10102400183677673,
        0.39904099702835083
      ],
      "max": [
        0.194909006357193,
        0.19981500506401062,
        0.49754598736763
      ],
      "type": "VEC3",
      "bufferView": 0,
      "byteOffset": 646272
    },
    {
      "name": "vmd_mol29_rep2_1_2_normals",
      "componentType": 5126,
      "count": 2016,
      "min": [
        -1,
        -1,
        -1
      ],
      "max": [
        1,
        1,
        1
      ],
      "type": "VEC3",
      "bufferView": 1,
      "byteOffset": 646272
    },
    {
      "name": "vmd_mol29_rep2_1_2_indices",
      "componentType": 5123,
      "count": 2016,
      "min": [
        0
      ],
      "max": [
        2015
      ],
      "type": "SCALAR",
      "bufferView": 2,
      "byteOffset": 107712
    },
    {
      "name": "vmd_mol29_rep2_1_3_positions",
      "componentType": 5126,
      "count": 864,
      "min": [
        0.14118699729442596,
        -0.060309998691082,
        0.16484199464321136
      ],
      "max": [
        0.18281400203704834,
        0.008748999796807766,
        0.2349649965763092
      ],
      "type": "VEC3",
      "bufferView": 0,
      "byteOffset": 670464
    },
    {
      "name": "vmd_mol29_rep2_1_3_normals",
      "componentType": 5126,
      "count": 864,
      "min": [
        -1,
        -1,
        -1
      ],
      "max": [
        1,
        1,
        1
      ],
      "type": "VEC3",
      "bufferView": 1,
      "byteOffset": 670464
    },
    {
      "name": "vmd_mol29_rep2_1_3_indices",
      "componentType": 5123,
      "count": 864,
      "min": [
        0
      ],
      "max": [
        863
      ],
      "type": "SCALAR",
      "bufferView": 2,
      "byteOffset": 111744
    },
    {
      "name": "vmd_mol29_rep3_1_0_positions",
      "componentType": 5126,
      "count": 23532,
      "min": [
        -0.6334450244903564,
        -0.6001390218734741,
        -0.6693770289421082
      ],
      "max": [
        0.7741360068321228,
        0.5719199776649475,
        0.6116060018539429
      ],
      "type": "VEC3",
      "bufferView": 0,
      "byteOffset": 680832
    },
    {
      "name": "vmd_mol29_rep3_1_0_normals",
      "componentType": 5126,
      "count": 23532,
      "min": [
        -0.9997498393058777,
        -0.9997084736824036,
        -0.9999238848686218
      ],
      "max": [
        0.9997498393058777,
        0.9997084736824036,
        0.9999238848686218
      ],
      "type": "VEC3",
      "bufferView": 1,
      "byteOffset": 680832
    },
    {
      "name": "vmd_mol29_rep3_1_0_indices",
      "componentType": 5123,
      "count": 141120,
      "min": [
        0
      ],
      "max": [
        23531
      ],
      "type": "SCALAR",
      "bufferView": 2,
      "byteOffset": 113472
    },
    {
      "name": "vmd_mol29_rep4_1_0_positions",
      "componentType": 5126,
      "count": 768,
      "min": [
        0.06748399883508682,
        -0.12065500020980835,
        0.18293799459934235
      ],
      "max": [
        0.12748600542545319,
        -0.02621299959719181,
        0.24134400486946106
      ],
      "type": "VEC3",
      "bufferView": 0,
      "byteOffset": 963216
    },
    {
      "name": "vmd_mol29_rep4_1_0_normals",
      "componentType": 5126,
      "count": 768,
      "min": [
        -1,
        -1,
        -1
      ],
      "max": [
        1,
        1,
        1
      ],
      "type": "VEC3",
      "bufferView": 1,
      "byteOffset": 963216
    },
    {
      "name": "vmd_mol29_rep4_1_0_indices",
      "componentType": 5123,
      "count": 768,
      "min": [
        0
      ],
      "max": [
        767
      ],
      "type": "SCALAR",
      "bufferView": 2,
      "byteOffset": 395712
    },
    {
      "name": "vmd_mol29_rep5_1_0_positions",
      "componentType": 5126,
      "count": 384,
      "min": [
        0.12835299968719482,
        -0.0603410005569458,
        0.16500699520111084
      ],
      "max": [
        0.19771899282932281,
        0.009025000035762787,
        0.23437300324440002
      ],
      "type": "VEC3",
      "bufferView": 0,
      "byteOffset": 972432
    },
    {
      "name": "vmd_mol29_rep5_1_0_normals",
      "componentType": 5126,
      "count": 384,
      "min": [
        -1,
        -1,
        -1
      ],
      "max": [
        1,
        1,
        1
      ],
      "type": "VEC3",
      "bufferView": 1,
      "byteOffset": 972432
    },
    {
      "name": "vmd_mol29_rep5_1_0_indices",
      "componentType": 5123,
      "count": 384,
      "min": [
        0
      ],
      "max": [
        383
      ],
      "type": "SCALAR",
      "bufferView": 2,
      "byteOffset": 397248
    }
  ],
  "asset": {
    "generator": "obj2gltf",
    "version": "2.0"
  },
  "buffers": [
    {
      "name": "frame29",
      "byteLength": 2352096,
      "uri": "data:application/octet-stream;base64,"
    }
  ],
  "bufferViews": [
    {
      "name": "bufferView_0",
      "buffer": 0,
      "byteLength": 977040,
      "byteOffset": 0,
      "byteStride": 12,
      "target": 34962
    },
    {
      "name": "bufferView_1",
      "buffer": 0,
      "byteLength": 977040,
      "byteOffset": 977040,
      "byteStride": 12,
      "target": 34962
    },
    {
      "name": "bufferView_2",
      "buffer": 0,
      "byteLength": 398016,
      "byteOffset": 1954080,
      "target": 34963
    }
  ],
  "materials": [
    {
      "name": "vmd_mat_cindex_0",
      "pbrMetallicRoughness": {
        "baseColorFactor": [
          0,
          0,
          0.65,
          1
        ],
        "metallicFactor": 0,
        "roughnessFactor": 0.925392
      },
      "emissiveFactor": [
        0,
        0,
        0
      ],
      "alphaMode": "OPAQUE",
      "doubleSided": false
    },
    {
      "name": "vmd_mat_cindex_10",
      "pbrMetallicRoughness": {
        "baseColorFactor": [
          0.16,
          0.49,
          0.49,
          1
        ],
        "metallicFactor": 0,
        "roughnessFactor": 0.96
      },
      "emissiveFactor": [
        0,
        0,
        0
      ],
      "alphaMode": "OPAQUE",
      "doubleSided": false
    },
    {
      "name": "vmd_mat_cindex_1",
      "pbrMetallicRoughness": {
        "baseColorFactor": [
          0.65,
          0,
          0,
          1
        ],
        "metallicFactor": 0,
        "roughnessFactor": 0.96
      },
      "emissiveFactor": [
        0,
        0,
        0
      ],
      "alphaMode": "OPAQUE",
      "doubleSided": false
    },
    {
      "name": "vmd_mat_cindex_4",
      "pbrMetallicRoughness": {
        "baseColorFactor": [
          0.65,
          0.65,
          0,
          1
        ],
        "metallicFactor": 0,
        "roughnessFactor": 0.96
      },
      "emissiveFactor": [
        0,
        0,
        0
      ],
      "alphaMode": "OPAQUE",
      "doubleSided": false
    },
    {
      "name": "vmd_mat_cindex_14",
      "pbrMetallicRoughness": {
        "baseColorFactor": [
          0.32,
          0.2,
          0,
          1
        ],
        "metallicFactor": 0,
        "roughnessFactor": 0.96
      },
      "emissiveFactor": [
        0,
        0,
        0
      ],
      "alphaMode": "OPAQUE",
      "doubleSided": false
    },
    {
      "name": "vmd_mat_cindex_8",
      "pbrMetallicRoughness": {
        "baseColorFactor": [
          0.65,
          0.65,
          0.65,
          1
        ],
        "metallicFactor": 0,
        "roughnessFactor": 0.96
      },
      "emissiveFactor": [
        0,
        0,
        0
      ],
      "alphaMode": "OPAQUE",
      "doubleSided": false
    }
  ],
  "meshes": [
    {
      "name": "vmd_mol29_rep1_1",
      "primitives": [
        {
          "attributes": {
            "POSITION": 0,
            "NORMAL": 1
          },
          "indices": 2,
          "material": 0,
          "mode": 4
        },
        {
          "attributes": {
            "POSITION": 3,
            "NORMAL": 4
          },
          "indices": 5,
          "material": 1,
          "mode": 4
        },
        {
          "attributes": {
            "POSITION": 6,
            "NORMAL": 7
          },
          "indices": 8,
          "material": 2,
          "mode": 4
        },
        {
          "attributes": {
            "POSITION": 9,
            "NORMAL": 10
          },
          "indices": 11,
          "material": 3,
          "mode": 4
        }
      ]
    },
    {
      "name": "vmd_mol29_rep2_1",
      "primitives": [
        {
          "attributes": {
            "POSITION": 12,
            "NORMAL": 13
          },
          "indices": 14,
          "material": 1,
          "mode": 4
        },
        {
          "attributes": {
            "POSITION": 15,
            "NORMAL": 16
          },
          "indices": 17,
          "material": 0,
          "mode": 4
        },
        {
          "attributes": {
            "POSITION": 18,
            "NORMAL": 19
          },
          "indices": 20,
          "material": 2,
          "mode": 4
        },
        {
          "attributes": {
            "POSITION": 21,
            "NORMAL": 22
          },
          "indices": 23,
          "material": 4,
          "mode": 4
        }
      ]
    },
    {
      "name": "vmd_mol29_rep3_1",
      "primitives": [
        {
          "attributes": {
            "POSITION": 24,
            "NORMAL": 25
          },
          "indices": 26,
          "material": 5,
          "mode": 4
        }
      ]
    },
    {
      "name": "vmd_mol29_rep4_1",
      "primitives": [
        {
          "attributes": {
            "POSITION": 27,
            "NORMAL": 28
          },
          "indices": 29,
          "material": 2,
          "mode": 4
        }
      ]
    },
    {
      "name": "vmd_mol29_rep5_1",
      "primitives": [
        {
          "attributes": {
            "POSITION": 30,
            "NORMAL": 31
          },
          "indices": 32,
          "material": 4,
          "mode": 4
        }
      ]
    }
  ],
  "nodes": [
    {
      "name": "vmd_mol29_rep1",
      "mesh": 0
    },
    {
      "name": "vmd_mol29_rep2",
      "mesh": 1
    },
    {
      "name": "vmd_mol29_rep3",
      "mesh": 2
    },
    {
      "name": "vmd_mol29_rep4",
      "mesh": 3
    },
    {
      "name": "vmd_mol29_rep5",
      "mesh": 4
    }
  ],
  "scene": 0,
  "scenes": [
    {
      "nodes": [
        0,
        1,
        2,
        3,
        4
      ]
    }
  ]
}
